#!OML:ASF F:\VICON\USERDATA\INSTALL\rory3\rory3.ASF
:FULLY-SPECIFIED
:DEGREES
16
root 1.28369 18.0288 -25.3302 -3.06415 -2.32275 0.102747
lowerback 11.3638 0.560671 -0.912384
upperback 0.373951 0.687263 0.986435
thorax -6.01078 0.376829 1.43789
lowerneck -17.5889 -2.76897 -1.22973
upperneck 21.705 -3.38823 -0.548478
head 9.80531 -1.73765 -0.444283
rclavicle 6.78353e-015 6.75868e-015
rhumerus -27.2027 -25.4826 -78.3184
rradius 28.1636
rwrist 3.9102
rhand -16.4223 22.6767
rfingers 7.12502
rthumb 9.79272 -7.0756
lclavicle 6.78353e-015 6.75868e-015
lhumerus -33.7046 3.61491 82.2601
lradius 22.7839
lwrist 7.22976
lhand -25.7037 19.9175
lfingers 7.12502
lthumb 0.831944 49.8956
rfemur -19.3982 -2.10034 22.3909
rtibia 72.2321
rfoot -2.95692 -3.57597
rtoes 11.6297
lfemur -9.04392 -4.59045 -24.029
ltibia 25.4673
lfoot -11.717 -4.99966
ltoes 3.46935
17
root 1.28461 18.026 -25.1745 -3.12825 -2.21586 0.101055
lowerback 11.4709 0.620853 -0.811809
upperback 0.692329 0.770755 0.864328
thorax -5.73435 0.410114 1.23925
lowerneck -18.7611 -2.87797 -0.864578
upperneck 21.9233 -3.61981 -0.597123
head 10.0933 -1.81496 -0.57577
rclavicle -9.34288e-015 -1.59028e-014
rhumerus -27.0546 -26.654 -78.2475
rradius 27.7845
rwrist 4.20831
rhand -16.5697 22.4346
rfingers 7.12502
rthumb 9.65056 -7.32431
lclavicle -9.34288e-015 -1.59028e-014
lhumerus -32.7312 2.54134 82.4256
lradius 23.2878
lwrist 7.69447
lhand -25.6269 19.6284
lfingers 7.12502
lthumb 0.906053 49.6062
rfemur -20.3711 -2.18708 22.4078
rtibia 71.8654
rfoot -4.10591 -3.41203
rtoes 8.54276
lfemur -8.50915 -4.41897 -24.1212
ltibia 25.6682
lfoot -12.5346 -4.94011
ltoes 3.51071
18
root 1.28666 18.0176 -25.0207 -3.12682 -2.07102 0.0922857
lowerback 11.6769 0.0860062 -1.28958
upperback -0.207127 0.0370437 1.44808
thorax -6.78297 0.0882539 2.25003
lowerneck -15.1129 -2.46354 -2.00565
upperneck 20.9423 -2.80008 -0.573836
head 9.09121 -1.53642 -0.203762
rclavicle -2.28602e-015 2.26615e-014
rhumerus -29.0655 -24.4176 -77.2009
rradius 27.5686
rwrist 3.79188
rhand -16.7955 22.4083
rfingers 7.12502
rthumb 9.4327 -7.36056
lclavicle -2.28602e-015 2.26615e-014
lhumerus -34.9612 3.79452 82.4965
lradius 24.2158
lwrist 7.68017
lhand -25.6149 19.2207
lfingers 7.12502
lthumb 0.917705 49.1985
rfemur -21.4261 -2.27386 22.4363
rtibia 71.3512
rfoot -5.18495 -3.76904
rtoes 7.6712
lfemur -8.04038 -4.31642 -24.1813
ltibia 25.8532
lfoot -12.7523 -4.98076
ltoes 5.66729
19
root 1.28384 18.0043 -24.8614 -3.06456 -1.98622 0.0801245
lowerback 11.5908 0.156588 -1.05185
upperback 0.0887873 0.146795 1.22003
thorax -6.42364 0.124428 1.8533
lowerneck -16.2606 -2.59556 -1.54889
upperneck 21.1894 -3.09579 -0.488781
head 9.38352 -1.62592 -0.306129
rclavicle -7.82715e-016 1.86858e-014
rhumerus -28.8631 -25.883 -77.1405
rradius 27.0116
rwrist 3.96568
rhand -16.5126 22.7563
rfingers 7.12502
rthumb 9.70563 -7.00012
lclavicle -7.82715e-016 1.86858e-014
lhumerus -33.6735 2.67149 82.5172
lradius 24.3893
lwrist 7.71435
lhand -25.7899 19.2195
lfingers 7.12502
lthumb 0.74864 49.198
rfemur -22.4957 -2.24517 22.5156
rtibia 70.719
rfoot -6.34273 -4.47475
rtoes 7.1556
lfemur -7.62956 -4.31561 -24.2291
ltibia 26.0556
lfoot -13.2816 -4.91624
ltoes 4.84978
20
root 1.28141 17.9936 -24.6978 -2.97929 -1.94212 0.272521
lowerback 11.3703 0.0734843 -1.35813
upperback 0.0624112 0.000752189 1.27583
thorax -6.32174 0.0625649 2.10883
lowerneck -15.8628 -2.52704 -1.76275
upperneck 21.0428 -2.97057 -0.411162
head 9.26353 -1.57705 -0.220977
rclavicle -1.10077e-014 -4.77083e-015
rhumerus -29.114 -25.9795 -76.8218
rradius 26.4853
rwrist 3.93907
rhand -16.5126 22.6125
rfingers 7.12502
rthumb 9.70563 -7.14388
lclavicle -1.10077e-014 -4.77083e-015
lhumerus -33.3666 2.45899 82.6212
lradius 24.7925
lwrist 7.62348
lhand -25.4344 19.4114
lfingers 7.12502
lthumb 1.09201 49.3884
rfemur -23.4997 -2.24364 22.3351
rtibia 69.9766
rfoot -7.33563 -4.60028
rtoes 5.852
lfemur -7.26063 -4.3278 -24.5077
ltibia 26.3031
lfoot -13.7454 -4.77654
ltoes 4.43312
21
root 1.27938 17.9802 -24.5413 -2.94701 -1.69602 0.487854
lowerback 11.4132 -0.0186726 -1.62193
upperback 0.13307 -0.157627 1.27003
thorax -6.26312 -0.0083368 2.27812
lowerneck -16.2046 -2.5661 -1.75525
upperneck 21.1034 -3.00201 -0.484247
head 9.34673 -1.59858 -0.256798
rclavicle -4.72114e-015 2.78299e-015
rhumerus -29.2877 -26.3007 -76.568
rradius 26.1678
rwrist 4.10566
rhand -16.7218 22.2061
rfingers 7.12502
rthumb 9.50381 -7.5596
lclavicle -4.72114e-015 2.78299e-015
lhumerus -32.9501 1.63485 82.882
lradius 25.4869
lwrist 8.17216
lhand -25.662 18.8344
lfingers 7.12502
lthumb 0.872213 48.8124
rfemur -24.4336 -2.42764 22.1088
rtibia 69.0902
rfoot -8.01857 -4.60131
rtoes 4.7459
lfemur -6.86332 -4.27602 -24.8155
ltibia 26.5373
lfoot -14.3844 -4.77841
ltoes 4.20542
22
root 1.27124 17.9593 -24.3938 -3.01844 -1.29451 0.703446
lowerback 11.5904 0.0537201 -1.67163
upperback 0.597257 -0.0897226 0.96012
thorax -5.87535 0.0132218 1.96674
lowerneck -17.9497 -2.74124 -1.18084
upperneck 21.4716 -3.3853 -0.432945
head 9.79082 -1.71809 -0.414852
rclavicle -1.73937e-015 -1.59028e-015
rhumerus -28.9053 -27.763 -76.7208
rradius 25.9226
rwrist 4.4245
rhand -17.4268 21.3354
rfingers 7.12502
rthumb 8.82353 -8.46018
lclavicle -1.73937e-015 -1.59028e-015
lhumerus -31.4863 -0.166504 83.0331
lradius 25.9269
lwrist 8.8344
lhand -27.0184 16.1155
lfingers 7.12502
lthumb -0.437828 46.0948
rfemur -25.281 -2.7353 21.8948
rtibia 68.0869
rfoot -8.69495 -5.20463
rtoes 4.26624
lfemur -6.36695 -4.22187 -25.1138
ltibia 26.7306
lfoot -14.9898 -4.85775
ltoes 3.53409
23
root 1.26448 17.9398 -24.2426 -3.0331 -0.909814 0.859923
lowerback 11.7323 -0.709075 -2.6835
upperback -0.42074 -1.19352 1.75092
thorax -6.94779 -0.453695 3.57874
lowerneck -13.619 -2.00478 -2.66838
upperneck 20.3851 -2.08233 -0.435191
head 8.63158 -1.23663 0.0605122
rclavicle -1.28962e-014 2.94201e-014
rhumerus -30.8442 -24.399 -75.6793
rradius 25.7997
rwrist 3.89736
rhand -18.0886 20.0851
rfingers 7.12502
rthumb 8.18485 -9.7364
lclavicle -1.28962e-014 2.94201e-014
lhumerus -33.9326 1.94129 83.149
lradius 26.5912
lwrist 8.41889
lhand -25.9103 20.4733
lfingers 7.12502
lthumb 0.63234 50.4521
rfemur -26.1003 -3.05662 21.7254
rtibia 66.9342
rfoot -9.71105 -5.8537
rtoes 2.75294
lfemur -5.88421 -4.24261 -25.3429
ltibia 26.8922
lfoot -15.4689 -4.88727
ltoes 3.87943
24
root 1.26006 17.9261 -24.0844 -2.92037 -0.731139 0.856599
lowerback 11.726 -0.72914 -2.61243
upperback -0.392789 -1.21516 1.67867
thorax -6.91546 -0.469259 3.46449
lowerneck -13.8392 -2.03171 -2.49264
upperneck 20.3238 -2.16683 -0.3734
head 8.64991 -1.25559 0.0405301
rclavicle -1.6027e-014 8.34896e-015
rhumerus -31.2325 -25.1397 -75.3482
rradius 25.5749
rwrist 4.16901
rhand -17.8224 20.207
rfingers 7.12502
rthumb 8.4417 -9.60433
lclavicle -1.6027e-014 8.34896e-015
lhumerus -33.3519 1.16359 83.1482
lradius 26.947
lwrist 8.42356
lhand -25.8399 21.1999
lfingers 7.12502
lthumb 0.700377 51.1785
rfemur -26.9813 -3.08773 21.7592
rtibia 65.5924
rfoot -10.2347 -6.32112
rtoes 3.06232
lfemur -5.47879 -4.30399 -25.3832
ltibia 27.0243
lfoot -15.858 -4.75638
ltoes 5.25456
25
root 1.25294 17.9132 -23.9264 -2.94221 -0.687718 0.914476
lowerback 11.9465 -0.725027 -2.73666
upperback -0.344253 -1.23133 1.68272
thorax -6.98475 -0.471654 3.54733
lowerneck -14.195 -2.09227 -2.51931
upperneck 20.3932 -2.25675 -0.26849
head 8.74125 -1.28876 0.0656241
rclavicle -1.15916e-014 2.3059e-014
rhumerus -31.6745 -25.4396 -75.0165
rradius 25.5129
rwrist 4.13695
rhand -17.4071 20.6158
rfingers 7.12502
rthumb 8.84253 -9.17896
lclavicle -1.15916e-014 2.3059e-014
lhumerus -32.9603 0.485687 83.2458
lradius 27.6882
lwrist 8.64648
lhand -26.7441 21.4574
lfingers 7.12502
lthumb -0.172968 51.437
rfemur -27.6596 -2.94343 21.7206
rtibia 64.0909
rfoot -10.8992 -6.87797
rtoes 2.35435
lfemur -4.84371 -4.27437 -25.4917
ltibia 26.9997
lfoot -16.3373 -4.59648
ltoes 5.38827
